<svg xmlns="http://www.w3.org/2000/svg" xmlns:xlink="http://www.w3.org/1999/xlink" viewBox="0 0 620.45 343.97"><defs><style>.cls-1{fill:#455a64;}.cls-2{fill:#fff;}.cls-3{fill:#f0f0f0;}.cls-4{clip-path:url(#clip-path);}.cls-5{fill:#e0e0e0;}.cls-6{clip-path:url(#clip-path-2);}.cls-7{fill:#ebebeb;}.cls-8{fill:#e8505b;}.cls-9{fill:#263238;}.cls-10{fill:#fafafa;}.cls-11{fill:none;}.cls-12{fill:#e5baab;}.cls-13{fill:#d78776;}</style><clipPath id="clip-path" transform="translate(-72 -65.58)"><path class="cls-1" d="M82.3,100.09"/></clipPath><clipPath id="clip-path-2" transform="translate(-72 -65.58)"><path class="cls-1" d="M573.21,98.64"/></clipPath></defs><g id="Background_Complete" data-name="Background Complete"><rect class="cls-2" x="10.3" y="34.51" width="111.16" height="194.48"/><path class="cls-3" d="M116.93,296.44s-12.18-87.5-18.56-97.11c0,0,36.42-27.35,37.53-101.45H80.64V296.44Z" transform="translate(-72 -65.58)"/><path class="cls-3" d="M158.82,296.05s12.17-87.5,18.56-97.11c0,0-36.42-27.34-37.54-101.45H195.1V296.05Z" transform="translate(-72 -65.58)"/><path class="cls-1" d="M82.3,100.09" transform="translate(-72 -65.58)"/><g class="cls-4"><path class="cls-1" d="M82.3,100.09Z" transform="translate(-72 -65.58)"/><path class="cls-1" d="M82.3,100.09Z" transform="translate(-72 -65.58)"/><path class="cls-1" d="M82.3,100.09Z" transform="translate(-72 -65.58)"/><path class="cls-1" d="M82.3,100.09Z" transform="translate(-72 -65.58)"/><path class="cls-1" d="M82.3,100.09Z" transform="translate(-72 -65.58)"/><path class="cls-1" d="M82.3,100.09Z" transform="translate(-72 -65.58)"/><path class="cls-1" d="M82.3,100.09Z" transform="translate(-72 -65.58)"/><path class="cls-1" d="M82.3,100.09Z" transform="translate(-72 -65.58)"/><path class="cls-1" d="M82.3,100.09Z" transform="translate(-72 -65.58)"/><path class="cls-1" d="M82.3,100.09Z" transform="translate(-72 -65.58)"/><path class="cls-1" d="M82.3,100.09Z" transform="translate(-72 -65.58)"/><path class="cls-1" d="M82.3,100.09Z" transform="translate(-72 -65.58)"/><path class="cls-1" d="M82.3,100.09Z" transform="translate(-72 -65.58)"/><path class="cls-1" d="M82.3,100.09Z" transform="translate(-72 -65.58)"/><path class="cls-1" d="M82.3,100.09Z" transform="translate(-72 -65.58)"/><path class="cls-1" d="M82.3,100.09Z" transform="translate(-72 -65.58)"/><path class="cls-1" d="M82.3,100.09Z" transform="translate(-72 -65.58)"/><path class="cls-1" d="M82.3,100.09Z" transform="translate(-72 -65.58)"/><path class="cls-1" d="M82.3,100.09Z" transform="translate(-72 -65.58)"/><path class="cls-1" d="M82.3,100.09Z" transform="translate(-72 -65.58)"/><path class="cls-1" d="M82.3,100.09Z" transform="translate(-72 -65.58)"/><path class="cls-1" d="M82.3,100.09Z" transform="translate(-72 -65.58)"/><path class="cls-1" d="M82.3,100.09Z" transform="translate(-72 -65.58)"/><path class="cls-1" d="M82.3,100.09Z" transform="translate(-72 -65.58)"/><path class="cls-1" d="M82.3,100.09Z" transform="translate(-72 -65.58)"/><path class="cls-1" d="M82.3,100.09Z" transform="translate(-72 -65.58)"/><path class="cls-1" d="M82.3,100.09Z" transform="translate(-72 -65.58)"/><path class="cls-1" d="M82.3,100.09Z" transform="translate(-72 -65.58)"/><path class="cls-1" d="M82.3,100.09Z" transform="translate(-72 -65.58)"/><path class="cls-1" d="M82.3,100.09Z" transform="translate(-72 -65.58)"/><path class="cls-1" d="M82.3,100.09Z" transform="translate(-72 -65.58)"/><path class="cls-1" d="M82.3,100.09Z" transform="translate(-72 -65.58)"/><path class="cls-1" d="M82.3,100.09Z" transform="translate(-72 -65.58)"/><path class="cls-1" d="M82.3,100.09Z" transform="translate(-72 -65.58)"/><path class="cls-1" d="M82.3,100.09Z" transform="translate(-72 -65.58)"/><path class="cls-1" d="M82.3,100.09Z" transform="translate(-72 -65.58)"/><path class="cls-1" d="M82.3,100.09Z" transform="translate(-72 -65.58)"/></g><path class="cls-5" d="M196.39,92.69H72V301H201.54V92.69ZM104.65,200.91v49.54H82.3V200.91ZM82.3,197.33V146.06h22.35v51.27Zm56.35,0V146.06H166.6v51.27Zm27.95,3.58v49.54H138.65V200.91Zm-61-3.58V146.06h29.43v51.27Zm29.43,3.58v49.54H105.64V200.91Zm-29.43-55.73V100.09h29.43v45.09Zm29.43,106.16v43.25H105.64V251.34Zm3.58,0H166.6v43.25H138.65Zm0-106.16V100.09H166.6v45.09Zm28.94,55.73h23.64v49.54H167.59Zm0-3.58V146.06h23.64v51.27Zm23.64-52.15H167.59V100.09h23.64Zm-86.58-45.09v45.09H82.3V100.09ZM82.3,251.34h22.35v43.25H82.3Zm85.29,43.25V251.34h23.64v43.25Z" transform="translate(-72 -65.58)"/><rect class="cls-2" x="501.21" y="33.06" width="111.16" height="194.48"/><path class="cls-3" d="M607.84,295s-12.18-87.49-18.56-97.11c0,0,36.42-27.34,37.53-101.45H571.55V295Z" transform="translate(-72 -65.58)"/><path class="cls-3" d="M649.73,294.6s12.17-87.5,18.55-97.11c0,0-36.41-27.35-37.53-101.45H686V294.6Z" transform="translate(-72 -65.58)"/><path class="cls-1" d="M573.21,98.64" transform="translate(-72 -65.58)"/><g class="cls-6"><path class="cls-1" d="M573.21,98.64Z" transform="translate(-72 -65.58)"/><path class="cls-1" d="M573.21,98.64Z" transform="translate(-72 -65.58)"/><path class="cls-1" d="M573.21,98.64Z" transform="translate(-72 -65.58)"/><path class="cls-1" d="M573.21,98.64Z" transform="translate(-72 -65.58)"/><path class="cls-1" d="M573.21,98.64Z" transform="translate(-72 -65.58)"/><path class="cls-1" d="M573.21,98.64Z" transform="translate(-72 -65.58)"/><path class="cls-1" d="M573.21,98.64Z" transform="translate(-72 -65.58)"/><path class="cls-1" d="M573.21,98.64Z" transform="translate(-72 -65.58)"/><path class="cls-1" d="M573.21,98.64Z" transform="translate(-72 -65.58)"/><path class="cls-1" d="M573.21,98.64Z" transform="translate(-72 -65.58)"/><path class="cls-1" d="M573.21,98.64Z" transform="translate(-72 -65.58)"/><path class="cls-1" d="M573.21,98.64Z" transform="translate(-72 -65.58)"/><path class="cls-1" d="M573.21,98.64Z" transform="translate(-72 -65.58)"/><path class="cls-1" d="M573.21,98.64Z" transform="translate(-72 -65.58)"/><path class="cls-1" d="M573.21,98.64Z" transform="translate(-72 -65.58)"/><path class="cls-1" d="M573.21,98.64Z" transform="translate(-72 -65.58)"/><path class="cls-1" d="M573.21,98.64Z" transform="translate(-72 -65.58)"/><path class="cls-1" d="M573.21,98.64Z" transform="translate(-72 -65.58)"/><path class="cls-1" d="M573.21,98.64Z" transform="translate(-72 -65.58)"/><path class="cls-1" d="M573.21,98.64Z" transform="translate(-72 -65.58)"/><path class="cls-1" d="M573.21,98.64Z" transform="translate(-72 -65.58)"/><path class="cls-1" d="M573.21,98.64Z" transform="translate(-72 -65.58)"/><path class="cls-1" d="M573.21,98.64Z" transform="translate(-72 -65.58)"/><path class="cls-1" d="M573.21,98.64Z" transform="translate(-72 -65.58)"/><path class="cls-1" d="M573.21,98.64Z" transform="translate(-72 -65.58)"/><path class="cls-1" d="M573.21,98.64Z" transform="translate(-72 -65.58)"/><path class="cls-1" d="M573.21,98.64Z" transform="translate(-72 -65.58)"/><path class="cls-1" d="M573.21,98.64Z" transform="translate(-72 -65.58)"/><path class="cls-1" d="M573.21,98.64Z" transform="translate(-72 -65.58)"/><path class="cls-1" d="M573.21,98.64Z" transform="translate(-72 -65.58)"/><path class="cls-1" d="M573.21,98.64Z" transform="translate(-72 -65.58)"/><path class="cls-1" d="M573.21,98.64Z" transform="translate(-72 -65.58)"/><path class="cls-1" d="M573.21,98.64Z" transform="translate(-72 -65.58)"/><path class="cls-1" d="M573.21,98.64Z" transform="translate(-72 -65.58)"/><path class="cls-1" d="M573.21,98.64Z" transform="translate(-72 -65.58)"/><path class="cls-1" d="M573.21,98.64Z" transform="translate(-72 -65.58)"/><path class="cls-1" d="M573.21,98.64Z" transform="translate(-72 -65.58)"/></g><path class="cls-5" d="M687.29,91.23H562.91V299.55H692.45V91.23ZM595.55,199.46V249H573.21V199.46Zm-22.34-3.58V144.61h22.34v51.27Zm56.35,0V144.61h28v51.27Zm28,3.58V249h-28V199.46Zm-61-3.58V144.61H626v51.27ZM626,199.46V249H596.55V199.46Zm-29.43-55.74V98.64H626v45.08ZM626,249.89v43.25H596.55V249.89Zm3.58,0h28v43.25h-28Zm0-106.17V98.64h28v45.08Zm28.94,55.74h23.64V249H658.5Zm0-3.58V144.61h23.64v51.27Zm23.64-52.16H658.5V98.64h23.64ZM595.55,98.64v45.08H573.21V98.64ZM573.21,249.89h22.34v43.25H573.21Zm85.29,43.25V249.89h23.64v43.25Z" transform="translate(-72 -65.58)"/><polygon class="cls-5" points="334.92 27.19 343.84 50 338.29 49.97 333.85 35.96 334.92 27.19"/><polygon class="cls-3" points="304.47 6.12 301.41 49.82 333.05 50.48 336.61 6.12 304.47 6.12"/><polygon class="cls-2" points="307.64 9.63 305.09 46.01 328.61 47.11 331.9 9.42 307.64 9.63"/><polygon class="cls-5" points="312.8 14.78 310.89 40.35 323.87 40.35 326.16 14.78 312.8 14.78"/><polygon class="cls-3" points="273.27 50.09 273.27 28.21 289.29 28.21 289.29 50.08 273.27 50.09"/><path class="cls-5" d="M354.38,93.79s3.86-28.25,2.78-28.21-3.8,25.76-3.8,25.76-.12-21.3-1.14-21.19,0,22.55,0,22.55-1.74-18.21-2.68-17.77.4,18.86.4,18.86h4.44" transform="translate(-72 -65.58)"/><path class="cls-3" d="M351.46,93.79s1.34-14.08,1.79-13.12,0,8.39,0,8.39,3.71-18.2,4.68-17.58-3.8,19.75-3.8,19.75,3.62-10.92,4.42-9.77-3,11.39-3,11.39,3.89-7.24,4.15-6.27-1.85,7.21-1.85,7.21Z" transform="translate(-72 -65.58)"/><path class="cls-3" d="M349.18,93.88s-8.57-16.82-7.51-16.3S348.21,89,348.21,89s-3.63-10.48-2.83-10.8,4.77,11.78,4.77,11.78l.89,3.94Z" transform="translate(-72 -65.58)"/><polygon class="cls-5" points="280.69 28.25 281.09 50.13 273.47 50.13 273.32 28.18 280.69 28.25"/><polygon class="cls-7" points="273.29 30.14 280.67 30.27 289.29 30.14 289.56 28.05 273.08 28.05 273.29 30.14"/><rect class="cls-7" x="257.05" y="49.48" width="112.18" height="5.78"/></g><g id="Plants"><path class="cls-8" d="M182.29,370.59c16-11.83,19.06-32.92,17.81-51.74-.21-3.14,0-6.47-1.57-9.18s-5.2-4.48-8-3.06c-2.33,1.17-3.27,3.92-4.52,6.21a18.62,18.62,0,0,1-7.25,7.29c-2,1.11-4.49,1.83-6.53.8-2.8-1.4-3.24-5.14-3.32-8.27l-.45-17.5a28.82,28.82,0,0,0-1.25-9.26c-1.09-2.94-3.35-5.63-6.4-6.36s-6.71,1.1-7.25,4.18a28.21,28.21,0,0,0,0,3.9c0,1.3-.61,2.76-1.85,3.16s-2.55-.43-3.53-1.32c-3.37-3.05-5.72-7.05-7.92-11s-4.36-8.05-7.44-11.4S125.56,261.06,121,261s-9.29,2.81-10.3,7.25,1.74,8.84,4.69,12.32a70.42,70.42,0,0,0,15.18,13.38,5.83,5.83,0,0,1,2.55,2.53c.75,2.07-1.18,4.2-3.25,5-2.34.85-4.91.69-7.37,1.06s-5.11,1.53-6,3.87c-1.19,3.24,1.62,6.5,4.36,8.61a60.89,60.89,0,0,0,18.27,9.64c2.36.76,4.84,1.42,6.77,3s3.15,4.33,2.09,6.57-4,3-6.42,2.67-4.68-1.6-7-2.39c-4.41-1.48-10-1-12.69,2.81a9.79,9.79,0,0,0-.79,8.79,22.8,22.8,0,0,0,5,7.57,60.93,60.93,0,0,0,26.61,17.21c10.21,3.12,19.61,3.75,29.54-.2" transform="translate(-72 -65.58)"/><path class="cls-9" d="M115.15,263.77l.32.29,1,.8c.85.69,2.11,1.72,3.69,3.09a117.45,117.45,0,0,1,12.52,12.5c2.46,2.83,5,6,7.69,9.52s5.51,7.24,8.34,11.3a140,140,0,0,1,8.25,13.11c1.3,2.35,2.47,4.82,3.67,7.34l3.61,7.65a283.74,283.74,0,0,1,12.26,29.74,137.36,137.36,0,0,1,6.1,25.5,101.45,101.45,0,0,1,.87,17.66c-.1,2.09-.21,3.71-.32,4.81-.05.52-.09.94-.11,1.25a2.66,2.66,0,0,0,0,.42,1.83,1.83,0,0,0,.08-.42c0-.31.09-.72.16-1.24.15-1.09.3-2.72.44-4.81a97,97,0,0,0-.69-17.72,135.83,135.83,0,0,0-6-25.62,280.5,280.5,0,0,0-12.24-29.82l-3.62-7.65c-1.19-2.51-2.38-5-3.68-7.36A139.16,139.16,0,0,0,149.12,301c-2.85-4.06-5.7-7.8-8.39-11.29s-5.29-6.67-7.76-9.49a111.71,111.71,0,0,0-12.69-12.4c-1.61-1.35-2.89-2.35-3.77-3l-1-.75A1.72,1.72,0,0,0,115.15,263.77Z" transform="translate(-72 -65.58)"/><path class="cls-9" d="M157.27,314.09a6.31,6.31,0,0,0,.27-1.34c.13-.87.29-2.14.47-3.7.34-3.13.68-7.47,1-12.26s.74-9.1,1.14-12.22c.19-1.56.36-2.82.49-3.69a6.22,6.22,0,0,0,.13-1.36,6.14,6.14,0,0,0-.35,1.32c-.2.86-.43,2.12-.68,3.67-.5,3.12-1,7.45-1.31,12.24s-.63,9-.86,12.26c-.11,1.47-.2,2.72-.28,3.71A5.72,5.72,0,0,0,157.27,314.09Z" transform="translate(-72 -65.58)"/><path class="cls-9" d="M116.27,307.91a9.35,9.35,0,0,0,1.63.13c1,.06,2.57.14,4.44.29,3.75.28,8.91.84,14.57,1.7s10.76,1.88,14.42,2.71c1.84.41,3.31.77,4.33,1a8.74,8.74,0,0,0,1.61.33,9.05,9.05,0,0,0-1.54-.55c-1-.31-2.47-.74-4.3-1.2-3.65-.94-8.75-2-14.43-2.89a146.82,146.82,0,0,0-14.63-1.53c-1.89-.1-3.41-.12-4.46-.1A7.86,7.86,0,0,0,116.27,307.91Z" transform="translate(-72 -65.58)"/><path class="cls-9" d="M176.45,358.21a1.9,1.9,0,0,0,.27-.5l.65-1.47c.56-1.29,1.32-3.17,2.22-5.51,1.82-4.67,4.13-11.2,6.58-18.44s4.69-13.79,6.4-18.5c.85-2.28,1.54-4.16,2.06-5.56.22-.61.4-1.11.54-1.52a2.29,2.29,0,0,0,.16-.54,1.75,1.75,0,0,0-.26.5c-.18.4-.4.88-.66,1.47-.55,1.29-1.31,3.17-2.22,5.51-1.82,4.67-4.13,11.2-6.58,18.45s-4.68,13.78-6.4,18.49c-.84,2.28-1.54,4.16-2.05,5.56l-.55,1.52A2.29,2.29,0,0,0,176.45,358.21Z" transform="translate(-72 -65.58)"/><path class="cls-9" d="M121.74,342.75a2.3,2.3,0,0,0,.55.21l1.59.46,5.85,1.67c5,1.41,11.76,3.43,19.28,5.67s14.36,4.21,19.34,5.52c2.49.65,4.51,1.16,5.91,1.48l1.62.37a2.23,2.23,0,0,0,.57.08,2.41,2.41,0,0,0-.54-.2l-1.59-.47-5.86-1.66c-5-1.41-11.76-3.43-19.28-5.68s-14.36-4.2-19.34-5.51c-2.49-.65-4.51-1.16-5.91-1.48l-1.62-.37A2.62,2.62,0,0,0,121.74,342.75Z" transform="translate(-72 -65.58)"/><path class="cls-8" d="M617.33,362.25a9,9,0,0,0-6.21,3.25,15.75,15.75,0,0,0-3.12,6.43c-1.16,4.5-.38,9.79.94,14.25,4.85-1.78,7.8-7,9.13-9.73,2.11-4.33,3.29-13.42-.74-14.2" transform="translate(-72 -65.58)"/><path class="cls-8" d="M602,391.68a7.63,7.63,0,0,0,.3-7.66,10.17,10.17,0,0,0-6.15-4.86,4.3,4.3,0,0,0-3.6.2,3.31,3.31,0,0,0-1.23,3.08,6.6,6.6,0,0,0,1.43,3.12c2.39,3.18,5.29,5.82,9.25,6.12" transform="translate(-72 -65.58)"/><path class="cls-9" d="M602,407.11a3.21,3.21,0,0,0,.24-.94c.12-.62.28-1.51.44-2.62a32.74,32.74,0,0,0,.22-8.78,16.25,16.25,0,0,0-3.29-8.11,10.44,10.44,0,0,0-1.91-1.87,3.34,3.34,0,0,0-.83-.52,23.63,23.63,0,0,1,2.45,2.61,17.23,17.23,0,0,1,3.07,8,38.17,38.17,0,0,1-.08,8.66A31.41,31.41,0,0,0,602,407.11Z" transform="translate(-72 -65.58)"/><path class="cls-9" d="M615.82,369.1a10.79,10.79,0,0,0-.71,1.44c-.44.94-1,2.32-1.76,4C611.9,378,610,382.71,608,388s-3.69,10.12-4.85,13.64c-.58,1.75-1,3.18-1.34,4.17a10.51,10.51,0,0,0-.42,1.56,8.88,8.88,0,0,0,.61-1.49c.39-1.06.89-2.45,1.5-4.12,1.25-3.48,3-8.29,5-13.57s3.87-10,5.23-13.48l1.6-4.08A7.93,7.93,0,0,0,615.82,369.1Z" transform="translate(-72 -65.58)"/><path class="cls-8" d="M607,396.09a17.87,17.87,0,0,1,14.34-7.78c1.44,0,3.15.32,3.72,1.65s-.38,2.8-1.42,3.8A15.27,15.27,0,0,1,607,396.48" transform="translate(-72 -65.58)"/><path class="cls-9" d="M618.9,391.84a3.31,3.31,0,0,0-.93,0,7.22,7.22,0,0,0-1.09.13,11.74,11.74,0,0,0-1.42.3,18.74,18.74,0,0,0-3.57,1.3,20,20,0,0,0-7.16,5.82,18.71,18.71,0,0,0-2,3.22,11.82,11.82,0,0,0-.58,1.34,7.59,7.59,0,0,0-.36,1,3.09,3.09,0,0,0-.2.92c.1,0,.46-1.25,1.47-3.12a20.66,20.66,0,0,1,2-3.09,23.15,23.15,0,0,1,3.2-3.23,22.88,22.88,0,0,1,3.81-2.46,20.7,20.7,0,0,1,3.44-1.38C617.59,392,618.92,391.94,618.9,391.84Z" transform="translate(-72 -65.58)"/></g><g id="Window"><rect class="cls-3" x="108.02" y="68.96" width="421.58" height="247.1" rx="3.27"/><path class="cls-5" d="M212.92,143.74a3.2,3.2,0,1,1-3.2-3.21A3.2,3.2,0,0,1,212.92,143.74Z" transform="translate(-72 -65.58)"/><path class="cls-5" d="M202.83,143.74a3.21,3.21,0,1,1-3.21-3.21A3.21,3.21,0,0,1,202.83,143.74Z" transform="translate(-72 -65.58)"/><path class="cls-5" d="M193.12,143.74a3.21,3.21,0,1,1-3.2-3.21A3.2,3.2,0,0,1,193.12,143.74Z" transform="translate(-72 -65.58)"/><rect class="cls-10" x="108.02" y="87.07" width="421.58" height="256.67"/><rect class="cls-5" x="108.02" y="87.07" width="421.58" height="59.53"/><path class="cls-1" d="M402.52,326.63c0,.18-14.69.33-32.82.33s-32.83-.15-32.83-.33,14.69-.33,32.83-.33S402.52,326.45,402.52,326.63Z" transform="translate(-72 -65.58)"/><path class="cls-1" d="M402.52,335.42c0,.18-14.69.32-32.82.32s-32.83-.14-32.83-.32,14.69-.33,32.83-.33S402.52,335.23,402.52,335.42Z" transform="translate(-72 -65.58)"/><path class="cls-1" d="M376.22,344.2c0,.18-8.81.33-19.68.33s-19.67-.15-19.67-.33,8.8-.32,19.67-.32S376.22,344,376.22,344.2Z" transform="translate(-72 -65.58)"/><rect class="cls-8" x="264.87" y="171.27" width="31.22" height="3.96"/><rect class="cls-10" x="264.87" y="184.01" width="68.6" height="66.37"/><polygon class="cls-8" points="270.19 244.71 289.17 210.55 304.69 232.38 314.12 220.79 328.15 244.71 270.19 244.71"/><path class="cls-8" d="M383.3,269.49a4.94,4.94,0,1,1-4.94-4.94A4.94,4.94,0,0,1,383.3,269.49Z" transform="translate(-72 -65.58)"/><path class="cls-5" d="M400.15,310.47s0-.1,0-.27,0-.45,0-.78c0-.7,0-1.7,0-3,0-2.63,0-6.44-.08-11.27,0-9.7-.08-23.5-.14-40.08l.28.28-58,0,.32-.32h0V270q0,7.32,0,14.3c0,9.3,0,18.09,0,26.17l-.28-.28,41.91.14,11.82.07,3.13,0h.81a1.64,1.64,0,0,1,.29,0,1,1,0,0,1-.25,0h-.78l-3.09,0-11.75.07-42.09.15h-.29v-.29c0-8.08,0-16.87,0-26.17q0-7,0-14.3V255.11h0l.33-.34,58,.05h.28v.28c-.06,16.65-.11,30.52-.14,40.25,0,4.81-.06,8.6-.08,11.21q0,1.89,0,2.94c0,.31,0,.55,0,.74A1,1,0,0,1,400.15,310.47Z" transform="translate(-72 -65.58)"/><path class="cls-1" d="M486.16,326.63c0,.18-14.7.33-32.83.33s-32.83-.15-32.83-.33,14.69-.33,32.83-.33S486.16,326.45,486.16,326.63Z" transform="translate(-72 -65.58)"/><path class="cls-1" d="M486.16,335.42c0,.18-14.7.32-32.83.32s-32.83-.14-32.83-.32,14.69-.33,32.83-.33S486.16,335.23,486.16,335.42Z" transform="translate(-72 -65.58)"/><path class="cls-1" d="M459.85,344.2c0,.18-8.81.33-19.68.33s-19.67-.15-19.67-.33,8.81-.32,19.67-.32S459.85,344,459.85,344.2Z" transform="translate(-72 -65.58)"/><rect class="cls-8" x="348.5" y="171.27" width="31.21" height="3.96"/><rect class="cls-10" x="348.5" y="184.01" width="68.6" height="66.37"/><polygon class="cls-8" points="353.82 244.71 372.8 210.55 388.32 232.38 397.75 220.79 411.78 244.71 353.82 244.71"/><path class="cls-8" d="M466.93,269.49a4.94,4.94,0,1,1-4.94-4.94A4.94,4.94,0,0,1,466.93,269.49Z" transform="translate(-72 -65.58)"/><path class="cls-5" d="M483.78,310.47s0-.1,0-.27,0-.45,0-.78c0-.7,0-1.7,0-3,0-2.63,0-6.44-.08-11.27,0-9.7-.08-23.5-.14-40.08l.28.28-58,0,.32-.32h0V270q0,7.32,0,14.3c0,9.3,0,18.09,0,26.17l-.28-.28,41.91.14,11.82.07,3.13,0h.82a1.58,1.58,0,0,1,.28,0,1,1,0,0,1-.25,0h-.78l-3.08,0-11.76.07-42.09.15h-.29v-.29c0-8.08,0-16.87,0-26.17q0-7,0-14.3V255.11h0l.33-.34,58,.05h.28v.28c-.06,16.65-.11,30.52-.14,40.25,0,4.81-.06,8.6-.07,11.21,0,1.26,0,2.24,0,2.94,0,.31,0,.55,0,.74A1,1,0,0,1,483.78,310.47Z" transform="translate(-72 -65.58)"/><path class="cls-1" d="M572.72,326.63c0,.18-14.7.33-32.83.33s-32.83-.15-32.83-.33,14.7-.33,32.83-.33S572.72,326.45,572.72,326.63Z" transform="translate(-72 -65.58)"/><path class="cls-1" d="M572.72,335.42c0,.18-14.7.32-32.83.32s-32.83-.14-32.83-.32,14.7-.33,32.83-.33S572.72,335.23,572.72,335.42Z" transform="translate(-72 -65.58)"/><path class="cls-1" d="M546.41,344.2c0,.18-8.81.33-19.67.33s-19.68-.15-19.68-.33,8.81-.32,19.68-.32S546.41,344,546.41,344.2Z" transform="translate(-72 -65.58)"/><rect class="cls-8" x="435.06" y="171.27" width="31.21" height="3.96"/><rect class="cls-10" x="435.06" y="184.01" width="68.6" height="66.37"/><polygon class="cls-8" points="440.38 244.71 459.36 210.55 474.88 232.38 484.31 220.79 498.35 244.71 440.38 244.71"/><path class="cls-8" d="M553.49,269.49a4.94,4.94,0,1,1-4.93-4.94A4.94,4.94,0,0,1,553.49,269.49Z" transform="translate(-72 -65.58)"/><path class="cls-5" d="M570.34,310.47s0-.1,0-.27,0-.45,0-.78c0-.7,0-1.7,0-3,0-2.63,0-6.44-.07-11.27,0-9.7-.09-23.5-.15-40.08l.28.28-58,0c-.08.07.61-.62.32-.32h0v7.5q0,3.74,0,7.39v14.3c0,9.3,0,18.09,0,26.17l-.28-.28,41.91.14,11.82.07,3.14,0h.81a1.58,1.58,0,0,1,.28,0,1,1,0,0,1-.25,0h-.78l-3.08,0-11.76.07-42.09.15h-.28v-.29c0-8.08,0-16.87,0-26.17V270q0-3.66,0-7.39v-7.5h0l.34-.34,58,.05h.29v.28c-.06,16.65-.11,30.52-.15,40.25,0,4.81-.05,8.6-.07,11.21q0,1.89,0,2.94c0,.31,0,.55,0,.74A1,1,0,0,1,570.34,310.47Z" transform="translate(-72 -65.58)"/><rect class="cls-8" x="267.07" y="290.87" width="31.21" height="3.96"/><path class="cls-10" d="M344.71,375V389.6q0,7.32,0,14.3c0,1.83,0,3.63,0,5.41h11.12l7.55-13.58L373,409.31h12.57l2.72-3.34,2,3.34h11.91c0-9.09-.07-20.78-.12-34.34Zm35.85,19a4.94,4.94,0,1,1,4.94-4.93A4.94,4.94,0,0,1,380.56,394Z" transform="translate(-72 -65.58)"/><path class="cls-10" d="M407.67,369.19H339.06v40.12h5V403.9q0-7,0-14.3V374.71h0c-.3.29.39-.41.33-.34l58,.05h.28v.28c-.05,13.67-.09,25.45-.13,34.62h5.17Z" transform="translate(-72 -65.58)"/><polygon class="cls-8" points="313.59 343.73 318.28 343.73 316.32 340.39 313.59 343.73"/><polygon class="cls-8" points="283.81 343.73 301.02 343.73 291.36 330.15 283.81 343.73"/><path class="cls-8" d="M380.56,384.15a4.94,4.94,0,1,0,4.94,4.94A4.94,4.94,0,0,0,380.56,384.15Z" transform="translate(-72 -65.58)"/><path class="cls-5" d="M402.63,374.41h-.28l-58-.05c.06-.07-.63.63-.33.34h0V389.6q0,7.32,0,14.3v5.41h.62c0-1.78,0-3.58,0-5.41q0-7,0-14.3V375l57.36,0c.05,13.56.09,25.25.12,34.34h.31c0-9.17.08-20.95.13-34.62Z" transform="translate(-72 -65.58)"/><rect class="cls-8" x="350.76" y="290.87" width="31.21" height="3.96"/><path class="cls-10" d="M428.4,375V389.6q0,7.32,0,14.3c0,1.83,0,3.63,0,5.41H439.5l7.55-13.58,9.66,13.58h12.57L472,406l2,3.34h11.91c0-9.09-.07-20.78-.12-34.34Zm35.85,19a4.94,4.94,0,1,1,4.94-4.93A4.94,4.94,0,0,1,464.25,394Z" transform="translate(-72 -65.58)"/><path class="cls-10" d="M491.36,369.19H422.75v40.12h5V403.9q0-7,0-14.3V374.71h0c-.3.29.39-.41.33-.34l58,.05h.28v.28c-.05,13.67-.09,25.45-.12,34.62h5.16Z" transform="translate(-72 -65.58)"/><polygon class="cls-8" points="367.5 343.73 384.71 343.73 375.05 330.15 367.5 343.73"/><polygon class="cls-8" points="397.28 343.73 401.97 343.73 400.01 340.39 397.28 343.73"/><path class="cls-8" d="M464.25,384.15a4.94,4.94,0,1,0,4.94,4.94A4.94,4.94,0,0,0,464.25,384.15Z" transform="translate(-72 -65.58)"/><path class="cls-5" d="M486.32,374.41H486l-58-.05c.06-.07-.63.63-.33.34h0V389.6q0,7.32,0,14.3v5.41h.62c0-1.78,0-3.58,0-5.41q0-7,0-14.3V375l57.36,0c.05,13.56.09,25.25.12,34.34h.32c0-9.17.07-20.95.12-34.62Z" transform="translate(-72 -65.58)"/><rect class="cls-8" x="436.73" y="290.87" width="31.21" height="3.96"/><path class="cls-10" d="M508.73,409.31h5V403.9q0-7,0-14.3,0-3.66,0-7.39v-7.5h0l.34-.34,58,.05h.28v.28c0,13.67-.09,25.45-.13,34.62h5.16V369.19h-68.6Z" transform="translate(-72 -65.58)"/><path class="cls-10" d="M514.38,375v7.19q0,3.74,0,7.39v14.3c0,1.83,0,3.63,0,5.41h11.12L533,395.73l9.66,13.58h12.57L558,406l2,3.34h11.91c0-9.09-.08-20.78-.12-34.34Zm35.85,19a4.94,4.94,0,1,1,4.93-4.93A4.94,4.94,0,0,1,550.23,394Z" transform="translate(-72 -65.58)"/><polygon class="cls-8" points="483.26 343.73 487.95 343.73 485.98 340.39 483.26 343.73"/><polygon class="cls-8" points="453.48 343.73 470.69 343.73 461.03 330.15 453.48 343.73"/><path class="cls-8" d="M550.23,384.15a4.94,4.94,0,1,0,4.93,4.94A4.94,4.94,0,0,0,550.23,384.15Z" transform="translate(-72 -65.58)"/><path class="cls-5" d="M572.3,374.41H572l-58-.05-.34.34h0v7.5q0,3.74,0,7.39,0,7.32,0,14.3v5.41h.62c0-1.78,0-3.58,0-5.41V389.6q0-3.66,0-7.39V375l57.36,0c0,13.56.09,25.25.12,34.34h.31c0-9.17.08-20.95.13-34.62Z" transform="translate(-72 -65.58)"/><path class="cls-1" d="M601.6,409.31c0-1.68-.08-107.06-.21-274.77l.21.21-421.55.05h0l.26-.26c0,97.67,0,190.63,0,274.77l-.24-.23,421.58.23L180,409.55h-.24v-.24c0-84.14,0-177.1,0-274.77v-.26h.29l421.55.06h.2v.2C601.68,302.25,601.6,407.63,601.6,409.31Z" transform="translate(-72 -65.58)"/><path class="cls-8" d="M300.09,346.44c0,.19-18.59.35-41.51.35s-41.5-.16-41.5-.35,18.58-.35,41.5-.35S300.09,346.24,300.09,346.44Z" transform="translate(-72 -65.58)"/><path class="cls-8" d="M300.09,355.62c0,.19-18.59.35-41.51.35s-41.5-.16-41.5-.35,18.58-.35,41.5-.35S300.09,355.43,300.09,355.62Z" transform="translate(-72 -65.58)"/><path class="cls-8" d="M300.09,364.8c0,.2-18.59.35-41.51.35s-41.5-.15-41.5-.35,18.58-.35,41.5-.35S300.09,364.61,300.09,364.8Z" transform="translate(-72 -65.58)"/><path class="cls-8" d="M264.77,374.18c0,.19-10.78.35-24.07.35s-24.07-.16-24.07-.35,10.78-.35,24.07-.35S264.77,374,264.77,374.18Z" transform="translate(-72 -65.58)"/><rect class="cls-8" x="217.08" y="327.71" width="57.19" height="4.18" transform="translate(419.35 594.01) rotate(180)"/><rect class="cls-5" x="145.08" y="322.93" width="32.06" height="3.9"/><rect class="cls-1" x="336.87" y="210.24" width="53.17" height="3.89" transform="translate(654.91 358.78) rotate(180)"/><rect class="cls-1" x="483.16" y="141.94" width="4.09" height="4.09"/><rect class="cls-1" x="483.16" y="147.56" width="4.09" height="4.09"/><rect class="cls-1" x="489.65" y="141.94" width="4.09" height="4.09"/><rect class="cls-1" x="489.65" y="147.56" width="4.09" height="4.09"/><rect class="cls-1" x="503.46" y="141.37" width="4.09" height="4.09"/><rect class="cls-1" x="503.46" y="147.56" width="4.09" height="4.09"/><path class="cls-9" d="M533.89,190.18l-.65.31c-.43.2-1.07.47-1.92.83-1.71.7-4.25,1.68-7.6,2.69-1.68.51-3.56,1-5.63,1.49a60,60,0,0,1-6.82,1.2,7.07,7.07,0,0,1-3.83-.63,5.1,5.1,0,0,1-2.45-3.3,8,8,0,0,1,.17-4.36,24.68,24.68,0,0,1,1.84-4.2l.27.26A298.76,298.76,0,0,1,478,198.87l-.62.26.32-.6,11-20.57a8.41,8.41,0,0,0,.84-2.82,3.21,3.21,0,0,0-.93-2.61,4.27,4.27,0,0,0-2.68-1,10.85,10.85,0,0,0-3,.28,62.35,62.35,0,0,0-12,4.19,63.07,63.07,0,0,0-22,17.18l-1.36,1.67.93-1.94q4.33-9,8.37-17.48,2-4.2,3.94-8.21a13.79,13.79,0,0,0,.85-2,3.31,3.31,0,0,0,.1-2,1.88,1.88,0,0,0-1.39-1.21,4.23,4.23,0,0,0-2,.14,11.56,11.56,0,0,0-1.91.77l-1.87.87c-1.23.57-2.42,1.21-3.6,1.79-2.34,1.24-4.57,2.48-6.68,3.77A120.06,120.06,0,0,0,433.06,177a121.72,121.72,0,0,0-14.38,13.12c-1.54,1.68-2.72,3-3.48,3.9l-.89,1c-.2.23-.31.34-.31.34s1.49-2,4.55-5.38A118.36,118.36,0,0,1,444.1,169c2.11-1.3,4.34-2.56,6.69-3.81,1.18-.59,2.37-1.22,3.61-1.81l1.87-.88a11.52,11.52,0,0,1,2-.79,4.64,4.64,0,0,1,2.2-.15,2.27,2.27,0,0,1,1.71,1.5,3.77,3.77,0,0,1-.08,2.28,15.84,15.84,0,0,1-.87,2.07c-1.28,2.67-2.59,5.42-3.92,8.22l-8.35,17.49-.43-.27a63.5,63.5,0,0,1,22.16-17.33,62.12,62.12,0,0,1,12.1-4.23A11.75,11.75,0,0,1,486,171a4.76,4.76,0,0,1,3,1.17,3.71,3.71,0,0,1,1.08,3,8.82,8.82,0,0,1-.89,3c-3.8,7.2-7.52,14-11,20.58l-.31-.33a300.88,300.88,0,0,0,29.25-14.3l.56-.32-.3.58a22.92,22.92,0,0,0-1.82,4.12,7.62,7.62,0,0,0-.19,4.17,4.76,4.76,0,0,0,2.27,3.1,6.67,6.67,0,0,0,3.64.61,58.41,58.41,0,0,0,6.79-1.15c2.07-.45,4-.94,5.62-1.43,3.36-1,5.91-1.93,7.62-2.59l2-.79Z" transform="translate(-72 -65.58)"/><path class="cls-9" d="M522.67,202.52c0,.15-8.64.26-19.3.26s-19.31-.11-19.31-.26,8.64-.26,19.31-.26S522.67,202.38,522.67,202.52Z" transform="translate(-72 -65.58)"/></g><g id="Character"><path class="cls-10" d="M309.9,251.73a57.1,57.1,0,1,1-57.09-57.09A57.09,57.09,0,0,1,309.9,251.73Z" transform="translate(-72 -65.58)"/><path class="cls-11" d="M317.21,192c.32.55.76,1.2,1.29,2.09a9.82,9.82,0,0,0-1-3.76,24.06,24.06,0,0,0-2.88-4.16l-.31-.44c.06.19.12.37.2.56A36.32,36.32,0,0,0,317.21,192Z" transform="translate(-72 -65.58)"/><polygon class="cls-11" points="241.63 147.64 241.66 147.63 241.6 147.65 241.63 147.64"/><path class="cls-11" d="M274.7,279.27l-.13.31c.23-.06.64-.14,1.17-.29A6.73,6.73,0,0,1,274.7,279.27Z" transform="translate(-72 -65.58)"/><polygon class="cls-11" points="241.55 149.08 241.55 149.07 241.55 149.03 241.55 149.02 241.55 149.08 241.55 149.08"/><path class="cls-11" d="M273.18,186.27h0c.39-1.31.77-2.47,1.13-3.33.28-.69.64-1.69,1.1-2.84-.64,1-1.27,2-1.86,3.09a26.07,26.07,0,0,0-3.1,10.46,41.84,41.84,0,0,0,2.3-5.9C272.89,187.25,273,186.75,273.18,186.27Z" transform="translate(-72 -65.58)"/><path class="cls-12" d="M296.64,271.2c2.87-1,5.46-2,7.33-2.75l1.56-.6,0-.34-11.59,4.66C294.77,271.87,295.69,271.54,296.64,271.2Z" transform="translate(-72 -65.58)"/><path class="cls-12" d="M348.71,251.72c-1.63-.61-5.21,8.15-5.53,5.82s5.62-10.21,3.89-10.78c-2.26-.75-5.83,8.49-6.19,9.25s-1.47.27-1.11-.4c.52-1,5.74-11.19,3.53-12-1.22-.42-1.77,1.85-1.77,1.85s-4.18,9.93-5.21,9.54,1.21-6.31,2.11-8.25.34-3.12-.83-2.81c-.8.21-3.7,6.09-4.55,8s-3.07,7.29-4.12,3.76-3.2-5.86-4.21-6.08a1.16,1.16,0,0,0-1,2,13.48,13.48,0,0,1,1.72,3.29,8.88,8.88,0,0,1,.63,2.92,37.17,37.17,0,0,1-.12,4.94l-17.88,21.91-2.55-16.6-1.46.66c-1.84.81-4.41,1.86-7.3,2.9s-5.28,1.79-7.19,2.34c1.2,4.64,2.68,10.6,4.45,18.19,5.78,24.77,24.06,3.22,24.06,3.22l19.76-26.23A142.61,142.61,0,0,0,347,256.94C349.73,252.21,349.31,252,348.71,251.72Z" transform="translate(-72 -65.58)"/><path class="cls-12" d="M204.29,234.07c-.85-.08-2.44-1.94-4.22-4.47a56.84,56.84,0,0,0-4.92,23.13,2.84,2.84,0,0,0,1.11.63c2.54.54,16.53-3.76,29.05-7.9l-9.85-15.16C210,232.46,205.32,234.16,204.29,234.07Z" transform="translate(-72 -65.58)"/><path class="cls-1" d="M276.91,230.42l.68.56a46.61,46.61,0,0,0,16.92,8.8,36.31,36.31,0,0,0,5.73,1l1,.08c-3.77-12.6-15.59-18.17-15.59-18.17L284,222c-.49,1.07-1,2.19-1.51,3.3A9.67,9.67,0,0,1,276.91,230.42Zm5.8-.69a1.14,1.14,0,1,1-.3-2l.18.08A1.2,1.2,0,0,1,282.71,229.73Z" transform="translate(-72 -65.58)"/><path class="cls-1" d="M281.87,276.2a11.9,11.9,0,0,1-3.44,2.47A9.43,9.43,0,0,0,281.87,276.2Z" transform="translate(-72 -65.58)"/><path class="cls-1" d="M263.75,303.69a19.57,19.57,0,0,1-6-1,31,31,0,0,1-8-4.07,87.45,87.45,0,0,1-8.48-7,77.91,77.91,0,0,0-8.47-6.9,29.83,29.83,0,0,0-8-3.85,20,20,0,0,0-5.91-.86c-.69,0-1.23.06-1.6.09L211,292.19a57,57,0,0,0,54.12,16.23l.34-4.83h0A12.64,12.64,0,0,1,263.75,303.69Zm-26-1.45a1.14,1.14,0,1,1-.31-2l.19.08A1.2,1.2,0,0,1,237.74,302.24Z" transform="translate(-72 -65.58)"/><path class="cls-1" d="M286.17,274.88a23.44,23.44,0,0,1,3.06-1.11c1.27-.43,2.88-1,4.66-1.6l11.59-4.66,1.46-.59s-2.71-12.27-5.11-23.81c-.15-.72-.33-1.41-.53-2.08-.3,0-.65,0-1.07,0a31.25,31.25,0,0,1-5.81-.87,44.93,44.93,0,0,1-17.15-8.74c-.33-.26-.63-.52-.95-.78a9.6,9.6,0,0,1-6.65-.49h0a9.68,9.68,0,0,1-5.24-11.68l-.7-.84c-1.57-1.91-2.81-3.48-3.65-4.57l-1-1.27a2.49,2.49,0,0,1-.31-.47s.15.13.39.4l1,1.21,3.77,4.47.57.65c.07-.19.14-.39.22-.59l1.27-2.9a25.2,25.2,0,0,0-12.91-4.47c.38.29.85.7,1.43,1.22a34.65,34.65,0,0,1,5.07,6.07A57.89,57.89,0,0,1,265,227.78c1.67,4.09,3.15,8.71,4.86,13.5a74.21,74.21,0,0,0,5.8,13,37.46,37.46,0,0,0,7.31,9c.44.38.87.73,1.3,1.06-.06-.24-.09-.38-.06-.39s.13.19.27.55a24.88,24.88,0,0,0,5,3c1.69.75,2.7,1,2.68,1.07a6.75,6.75,0,0,1-.73-.18,18.58,18.58,0,0,1-2-.7,23.38,23.38,0,0,1-4.77-2.67,11.41,11.41,0,0,1,.36,1.92,11.66,11.66,0,0,1-.38,4.29,13,13,0,0,0,.67-3.81l.87,7.79,2.25-.91A11.93,11.93,0,0,1,286.17,274.88Zm7.12-24.19.19.08a1.14,1.14,0,1,1-.19-.08Z" transform="translate(-72 -65.58)"/><path class="cls-1" d="M274.57,279.58l.13-.31a6.73,6.73,0,0,0,1,0l.61-.19c-.22-.27-.54-.68-1-1.19a26.84,26.84,0,0,0-4.12-3.83,36.9,36.9,0,0,0-7.21-4.19,78,78,0,0,0-9.62-3.54c-3.48-1.08-6.84-2-9.85-3a42.81,42.81,0,0,1-7.74-3.34,26.88,26.88,0,0,1-4.64-3.3,15.23,15.23,0,0,1-1.11-1.07,2.25,2.25,0,0,1-.36-.4s.58.47,1.61,1.32a30,30,0,0,0,4.68,3.13,46.6,46.6,0,0,0,7.71,3.21c3,1,6.36,1.88,9.85,3a75,75,0,0,1,9.67,3.6,36,36,0,0,1,7.24,4.34,24.48,24.48,0,0,1,4,4,15.18,15.18,0,0,1,.91,1.26v0c.27-.1.56-.2.86-.33A11.8,11.8,0,0,0,284.68,267a13,13,0,0,0-.28-2.16c-.54-.39-1.09-.82-1.66-1.3a36.71,36.71,0,0,1-7.47-9,72.92,72.92,0,0,1-5.88-13.1c-1.71-4.8-3.17-9.41-4.81-13.49a61,61,0,0,0-5.23-10.41,37.13,37.13,0,0,0-4.9-6.12c-.62-.61-1.12-1.06-1.48-1.39-5.94-.38-13.54,1.07-22.19,7.2l-5.33,3.47.35.64c.12.26.27.55.45.89l.69,1.18a32.42,32.42,0,0,0,5.45,6.7,59.85,59.85,0,0,0,10.32,7.65c4.15,2.53,8.94,4.92,13.77,7.8a53.77,53.77,0,0,1,12.5,9.72,33.45,33.45,0,0,1,6.61,11.09,74.79,74.79,0,0,1,2.5,8.36q.33,1.45.54,2.31a5.46,5.46,0,0,1,.15.81,3.57,3.57,0,0,1-.25-.78l-.64-2.29c-.56-2-1.32-4.85-2.64-8.27a33.66,33.66,0,0,0-6.62-10.91A54.31,54.31,0,0,0,256.21,246c-4.81-2.87-9.59-5.27-13.74-7.84a57.49,57.49,0,0,1-10.33-7.79,30.87,30.87,0,0,1-5.38-6.87c-.25-.45-.47-.85-.65-1.2l-.41-.92c-.15-.33-.24-.55-.28-.67l-11.37,7.41,1.41,2.16,9.85,15.16,2.4,3.69,7.35-4.39a21.84,21.84,0,0,1-3.21,1.45,28.18,28.18,0,0,1,5.83-3.25,28.57,28.57,0,0,1,6.26-2.29c.05.14-2.72,1.23-6.05,2.76l-.64.3-8.9,15.35-11,20.93a15.28,15.28,0,0,1,1.53-.17,18.78,18.78,0,0,1,6,.7,29.47,29.47,0,0,1,8.15,3.81,73.28,73.28,0,0,1,8.56,6.91,90.77,90.77,0,0,0,8.41,7,32.09,32.09,0,0,0,7.86,4.11,20.91,20.91,0,0,0,5.87,1.12c.73,0,1.3,0,1.67,0l.05-.66,9.06-23.15c-.1,0-.17,0-.17,0S274.43,279.61,274.57,279.58ZM247,224.41a1.19,1.19,0,0,1-1.78-.76,1.21,1.21,0,0,1,1.48-1.25l.18.08A1.2,1.2,0,0,1,247,224.41Zm.81,27.78.18.08a1.13,1.13,0,1,1-.18-.08ZM257.5,278l.18.08a1.13,1.13,0,1,1-.18-.08Zm-30,1.68a1.14,1.14,0,1,1-.31-2l.19.08A1.2,1.2,0,0,1,227.53,279.63Zm44.87,3.79a13.53,13.53,0,0,1-1.45.73,24,24,0,0,1-5.71,1.75,33,33,0,0,1-8.84.33A48.39,48.39,0,0,1,245.8,284c-3.66-1.18-7-2.6-10.09-3.9s-5.78-2.52-8.11-3.46a13,13,0,0,0-3.2-.93,6,6,0,0,0-2.48.19,5,5,0,0,0-1.85,1.06,1.31,1.31,0,0,1,.37-.43,4.23,4.23,0,0,1,1.42-.82,6,6,0,0,1,2.57-.29,13.18,13.18,0,0,1,3.31.88c2.35.9,5.1,2.07,8.16,3.36s6.43,2.67,10.06,3.85a49.64,49.64,0,0,0,10.48,2.28,33.48,33.48,0,0,0,8.74-.22,26.09,26.09,0,0,0,5.69-1.56c1.3-.52,2-.9,2-.85A2.1,2.1,0,0,1,272.4,283.42Z" transform="translate(-72 -65.58)"/><path class="cls-2" d="M264,217.37l-3.77-4.47-1-1.21c-.24-.27-.37-.41-.39-.4a2.49,2.49,0,0,0,.31.47l1,1.27c.84,1.09,2.08,2.66,3.65,4.57l.7.84c0-.14.1-.28.15-.42Z" transform="translate(-72 -65.58)"/><path class="cls-2" d="M294.51,239.78a46.61,46.61,0,0,1-16.92-8.8l-.68-.56-.59.19c.32.26.62.52.95.78a44.93,44.93,0,0,0,17.15,8.74,31.25,31.25,0,0,0,5.81.87c.42,0,.77,0,1.07,0h.52a2,2,0,0,0,.56,0,6.46,6.46,0,0,0-1.12-.11l-1-.08A36.31,36.31,0,0,1,294.51,239.78Z" transform="translate(-72 -65.58)"/><path class="cls-2" d="M284.69,265.08a23.38,23.38,0,0,0,4.77,2.67,18.58,18.58,0,0,0,2,.7,6.75,6.75,0,0,0,.73.18c0-.07-1-.32-2.68-1.07a24.88,24.88,0,0,1-5-3c0,.07.05.14.08.22Z" transform="translate(-72 -65.58)"/><path class="cls-2" d="M259.35,217.55A61,61,0,0,1,264.58,228c1.64,4.08,3.1,8.69,4.81,13.49a72.92,72.92,0,0,0,5.88,13.1,36.71,36.71,0,0,0,7.47,9c.57.48,1.12.91,1.66,1.3,0-.2-.08-.37-.11-.51-.43-.33-.86-.68-1.3-1.06a37.46,37.46,0,0,1-7.31-9,74.21,74.21,0,0,1-5.8-13c-1.71-4.79-3.19-9.41-4.86-13.5a57.89,57.89,0,0,0-5.36-10.43,34.65,34.65,0,0,0-5.07-6.07c-.58-.52-1.05-.93-1.43-1.22l-.21-.17a4.94,4.94,0,0,0-.61-.44s.21.22.63.59.86.78,1.48,1.39A37.13,37.13,0,0,1,259.35,217.55Z" transform="translate(-72 -65.58)"/><path class="cls-2" d="M226.11,222.32c.18.35.4.75.65,1.2a30.87,30.87,0,0,0,5.38,6.87,57.49,57.49,0,0,0,10.33,7.79c4.15,2.57,8.93,5,13.74,7.84a54.31,54.31,0,0,1,12.42,9.59,33.66,33.66,0,0,1,6.62,10.91c1.32,3.42,2.08,6.3,2.64,8.27l.64,2.29a3.57,3.57,0,0,0,.25.78,5.46,5.46,0,0,0-.15-.81q-.21-.85-.54-2.31a74.79,74.79,0,0,0-2.5-8.36A33.45,33.45,0,0,0,269,255.29a53.77,53.77,0,0,0-12.5-9.72c-4.83-2.88-9.62-5.27-13.77-7.8a59.85,59.85,0,0,1-10.32-7.65,32.42,32.42,0,0,1-5.45-6.7l-.69-1.18c-.18-.34-.33-.63-.45-.89l-.35-.64c0-.05,0-.08-.06-.08l0,.1c0,.12.13.34.28.67Z" transform="translate(-72 -65.58)"/><path class="cls-2" d="M276.71,279.5s0-.06-.08-.15h-.06C276.65,279.46,276.7,279.51,276.71,279.5Z" transform="translate(-72 -65.58)"/><path class="cls-2" d="M275.53,277.78a24.48,24.48,0,0,0-4-4,36,36,0,0,0-7.24-4.34,75,75,0,0,0-9.67-3.6c-3.49-1.08-6.85-2-9.85-3a46.6,46.6,0,0,1-7.71-3.21,30,30,0,0,1-4.68-3.13c-1-.85-1.58-1.35-1.61-1.32a2.25,2.25,0,0,0,.36.4,15.23,15.23,0,0,0,1.11,1.07,26.88,26.88,0,0,0,4.64,3.3,42.81,42.81,0,0,0,7.74,3.34c3,1,6.37,1.93,9.85,3a78,78,0,0,1,9.62,3.54,36.9,36.9,0,0,1,7.21,4.19,26.84,26.84,0,0,1,4.12,3.83c.43.51.75.92,1,1.19l.1,0v0A15.18,15.18,0,0,0,275.53,277.78Z" transform="translate(-72 -65.58)"/><path class="cls-2" d="M265.18,285.53a33.48,33.48,0,0,1-8.74.22A49.64,49.64,0,0,1,246,283.47c-3.63-1.18-7-2.58-10.06-3.85s-5.81-2.46-8.16-3.36a13.18,13.18,0,0,0-3.31-.88,6,6,0,0,0-2.57.29,4.23,4.23,0,0,0-1.42.82,1.31,1.31,0,0,0-.37.43,5,5,0,0,1,1.85-1.06,6,6,0,0,1,2.48-.19,13,13,0,0,1,3.2.93c2.33.94,5.06,2.15,8.11,3.46s6.43,2.72,10.09,3.9a48.39,48.39,0,0,0,10.6,2.27,33,33,0,0,0,8.84-.33,24,24,0,0,0,5.71-1.75,13.53,13.53,0,0,0,1.45-.73,2.1,2.1,0,0,0,.48-.3c0-.05-.71.33-2,.85A26.09,26.09,0,0,1,265.18,285.53Z" transform="translate(-72 -65.58)"/><path class="cls-2" d="M263.75,303.49a20.91,20.91,0,0,1-5.87-1.12,32.09,32.09,0,0,1-7.86-4.11,90.77,90.77,0,0,1-8.41-7,73.28,73.28,0,0,0-8.56-6.91,29.47,29.47,0,0,0-8.15-3.81,18.78,18.78,0,0,0-6-.7,15.28,15.28,0,0,0-1.53.17l-.11,0a2.42,2.42,0,0,0-.56.13,2.36,2.36,0,0,0,.61,0c.37,0,.91-.08,1.6-.09a20,20,0,0,1,5.91.86,29.83,29.83,0,0,1,8,3.85,77.91,77.91,0,0,1,8.47,6.9,87.45,87.45,0,0,0,8.48,7,31,31,0,0,0,8,4.07,19.57,19.57,0,0,0,6,1,12.64,12.64,0,0,0,1.65-.1h0a2.3,2.3,0,0,0,.55-.1s-.19,0-.54,0S264.48,303.52,263.75,303.49Z" transform="translate(-72 -65.58)"/><path class="cls-9" d="M304.11,268.79l1.46-.66a7.78,7.78,0,0,0,1.47-.78,7.07,7.07,0,0,0-1.51.5l-1.56.6c-1.87.72-4.46,1.71-7.33,2.75-.95.34-1.87.67-2.75,1-1.78.63-3.39,1.17-4.66,1.6a23.44,23.44,0,0,0-3.06,1.11,11.93,11.93,0,0,0,2.29-.52l.88-.24.28-.09c1.91-.55,4.44-1.35,7.19-2.34S302.27,269.6,304.11,268.79Z" transform="translate(-72 -65.58)"/><path class="cls-9" d="M285.05,267a11.41,11.41,0,0,0-.36-1.92l-.11-.34c0-.08-.05-.15-.08-.22-.14-.36-.24-.56-.27-.55s0,.15.06.39.07.31.11.51a13,13,0,0,1,.28,2.16,11.8,11.8,0,0,1-7.37,11.71c-.3.13-.59.23-.86.33l-.1,0-.61.19c-.53.15-.94.23-1.17.29s-.22.06-.21.08.07,0,.17,0a3.57,3.57,0,0,0,.67,0,9,9,0,0,0,1.37-.28h.06l.82-.26c.31-.11.64-.26,1-.42a11.9,11.9,0,0,0,3.44-2.47,11.15,11.15,0,0,0,1.46-1.84,11.9,11.9,0,0,0,1.72-7.36Z" transform="translate(-72 -65.58)"/><path class="cls-9" d="M243.94,240.67a28.57,28.57,0,0,0-6.26,2.29,28.18,28.18,0,0,0-5.83,3.25,21.84,21.84,0,0,0,3.21-1.45c.67-.32,1.4-.67,2.19-1l.64-.3C241.22,241.9,244,240.81,243.94,240.67Z" transform="translate(-72 -65.58)"/><path class="cls-8" d="M246.87,222.48l-.18-.08a1.21,1.21,0,0,0-1.48,1.25,1.14,1.14,0,1,0,1.66-1.17Z" transform="translate(-72 -65.58)"/><path class="cls-8" d="M293.59,252.7a1.19,1.19,0,0,0-.11-1.93l-.19-.08a1.13,1.13,0,1,0,.3,2Z" transform="translate(-72 -65.58)"/><path class="cls-8" d="M248.1,254.2a1.2,1.2,0,0,0-.12-1.93l-.18-.08a1.14,1.14,0,1,0,.3,2Z" transform="translate(-72 -65.58)"/><path class="cls-8" d="M257.8,280a1.2,1.2,0,0,0-.12-1.93l-.18-.08a1.14,1.14,0,1,0,.3,2Z" transform="translate(-72 -65.58)"/><path class="cls-8" d="M237.62,300.31l-.19-.08a1.14,1.14,0,1,0,.19.08Z" transform="translate(-72 -65.58)"/><path class="cls-8" d="M227.41,277.7l-.19-.08a1.14,1.14,0,1,0,.19.08Z" transform="translate(-72 -65.58)"/><path class="cls-8" d="M280.93,229a1.14,1.14,0,1,0,1.66-1.17l-.18-.08A1.2,1.2,0,0,0,280.93,229Z" transform="translate(-72 -65.58)"/><path class="cls-12" d="M291.32,175.73c0,.14-.08.28-.13.43a14,14,0,0,0,1.22,4.59,4.91,4.91,0,0,0,2.88,3h0A34.71,34.71,0,0,1,291.32,175.73Z" transform="translate(-72 -65.58)"/><path class="cls-12" d="M264.58,218c-.05.14-.11.28-.15.42a9.68,9.68,0,0,0,5.24,11.68h0a9.6,9.6,0,0,0,6.65.49l.59-.19a9.67,9.67,0,0,0,5.57-5.1c.5-1.11,1-2.23,1.51-3.3.72-1.55,1.39-3,1.95-4.18l1.39-3-1,2c-8.31-3-8.22-10.17-8.22-10.17a21.62,21.62,0,0,0,9.24,8.19s6.58,1.84,11.72-6.14a109.73,109.73,0,0,0,7.15-14.54l-.06-.26a4.11,4.11,0,0,1-.56-.27,4,4,0,0,1-.38-.24h0c.21.44.21.76.12.79s-.68-.91-1.78-1.43-2.17-.32-2.22-.52.21-.29.69-.4a2.83,2.83,0,0,1,1.47.1c-2.09-2.23-3.63-5.53-4.75-8.11.18,1.29,2.4,5.35,2.57,6.65a28.58,28.58,0,0,1-5.64-6.26l-.48,0a3.62,3.62,0,0,1-1.94-1,7.06,7.06,0,0,1-1.48-2.17,11.2,11.2,0,0,1-1-3.67c-1.32,3.47-4.09,8.43-9.58,10.77a5.19,5.19,0,0,0-2.58-1,3.62,3.62,0,0,0-2.67.82,3.87,3.87,0,0,0-1.21,2.54,6.49,6.49,0,0,0,.45,2.82,4.84,4.84,0,0,0,.93,1.6,26,26,0,0,1-2.07,2,1.73,1.73,0,0,0,1.14.7,1.67,1.67,0,0,0,1.67-.67,2.29,2.29,0,0,0,.43-1.56c-.1-1-.56-1.53-.45-1.6s.68.37.95,1.52a2.65,2.65,0,0,1-.38,2,2.32,2.32,0,0,1-2.34,1,2.36,2.36,0,0,1-1.51-.9L269.8,206l-3.73,8.53-1.27,2.9C264.72,217.63,264.65,217.83,264.58,218ZM301,193.81a1.13,1.13,0,1,1,.6,1.5A1.14,1.14,0,0,1,301,193.81ZM294.85,201c.3.11.59.17.73,0a1.93,1.93,0,0,0,.22-1q.1-1.29.21-2.7a48.06,48.06,0,0,1,.87-6.93,47.65,47.65,0,0,1-.34,7c-.09.94-.18,1.84-.26,2.7a2,2,0,0,1-.39,1.25.8.8,0,0,1-.66.23,1.92,1.92,0,0,1-.51-.16,7.09,7.09,0,0,1-1.8-.87A7.45,7.45,0,0,1,294.85,201Zm-2.08-12.69c.21.44.21.75.11.79s-.68-.91-1.78-1.43-2.16-.32-2.22-.52.22-.29.69-.4a2.94,2.94,0,0,1,3.2,1.56ZM291,189.42a1.15,1.15,0,0,1-1.48.64,1.16,1.16,0,1,1,1.48-.64Zm-1.9,11.1a2.49,2.49,0,0,1,.13-.67c.2-.56.48-.82.55-.77s-.09.65-.06,1.47a2.07,2.07,0,0,1,.94.54,2.4,2.4,0,0,1,.6,2.15v.07s0,0,0,.06c.37.29.66.44.63.53s-.4.11-.94-.13a1.41,1.41,0,0,1-.24-.13,1.26,1.26,0,0,1-.27,0,4.17,4.17,0,0,1-1.7-.6,1.53,1.53,0,0,1-.69-1.57A1.33,1.33,0,0,1,289.09,200.52ZM277.15,193a1.83,1.83,0,0,1-.57-1.29,4.21,4.21,0,0,1,.24-1.61,2.41,2.41,0,0,1,1.06-1.33,1.64,1.64,0,0,1,1.43-.14c.8.35.79,1,.7,1s-.28-.4-.86-.52a1.58,1.58,0,0,0-1.65,1.24,2.55,2.55,0,0,0,0,2.29c.37.48.82.42.84.51S277.83,193.55,277.15,193Z" transform="translate(-72 -65.58)"/><path class="cls-9" d="M301.63,195.31a1.15,1.15,0,0,0,1.48-.64,1.13,1.13,0,1,0-1.48.64Z" transform="translate(-72 -65.58)"/><path class="cls-9" d="M288.91,188.56a1.13,1.13,0,0,0,.6,1.5,1.15,1.15,0,0,0,1.48-.64,1.13,1.13,0,1,0-2.08-.86Z" transform="translate(-72 -65.58)"/><path class="cls-9" d="M289.57,186.75c-.47.11-.72.3-.69.4s1.14,0,2.22.52,1.59,1.51,1.78,1.43.1-.35-.11-.79a2.94,2.94,0,0,0-3.2-1.56Z" transform="translate(-72 -65.58)"/><path class="cls-9" d="M294.72,201.36a1.92,1.92,0,0,0,.51.16.8.8,0,0,0,.66-.23,2,2,0,0,0,.39-1.25c.08-.86.17-1.76.26-2.7a47.65,47.65,0,0,0,.34-7,48.06,48.06,0,0,0-.87,6.93q-.11,1.41-.21,2.7a1.93,1.93,0,0,1-.22,1c-.14.18-.43.12-.73,0a7.45,7.45,0,0,0-1.93-.51A7.09,7.09,0,0,0,294.72,201.36Z" transform="translate(-72 -65.58)"/><path class="cls-13" d="M278.09,206.69s-.09,7.15,8.22,10.17l1-2A21.62,21.62,0,0,1,278.09,206.69Z" transform="translate(-72 -65.58)"/><path class="cls-13" d="M288.7,203a4.17,4.17,0,0,0,1.7.6,1.26,1.26,0,0,0,.27,0,3.15,3.15,0,0,1-1.58-3.12,1.33,1.33,0,0,0-1.08.91A1.53,1.53,0,0,0,288.7,203Z" transform="translate(-72 -65.58)"/><path class="cls-13" d="M291.22,203.37s0,0,0-.06v-.07a2.4,2.4,0,0,0-.6-2.15,2.07,2.07,0,0,0-.94-.54,3.51,3.51,0,0,0,.27,1.29A3.89,3.89,0,0,0,291.22,203.37Z" transform="translate(-72 -65.58)"/><path class="cls-9" d="M289.32,202.13a3.22,3.22,0,0,0,1.35,1.51,1.41,1.41,0,0,0,.24.13c.54.24.92.22.94.13s-.26-.24-.63-.53a3.89,3.89,0,0,1-1.24-1.53,3.51,3.51,0,0,1-.27-1.29c0-.82.19-1.42.06-1.47s-.35.21-.55.77a2.49,2.49,0,0,0-.13.67A3.24,3.24,0,0,0,289.32,202.13Z" transform="translate(-72 -65.58)"/><path class="cls-13" d="M278.36,193.13c0-.09-.47,0-.84-.51a2.55,2.55,0,0,1,0-2.29,1.58,1.58,0,0,1,1.65-1.24c.58.12.76.55.86.52s.1-.65-.7-1a1.64,1.64,0,0,0-1.43.14,2.41,2.41,0,0,0-1.06,1.33,4.21,4.21,0,0,0-.24,1.61,1.83,1.83,0,0,0,.57,1.29C277.83,193.55,278.45,193.21,278.36,193.13Z" transform="translate(-72 -65.58)"/><path class="cls-9" d="M275.05,198.34a2.32,2.32,0,0,0,2.34-1,2.65,2.65,0,0,0,.38-2c-.27-1.15-.91-1.57-.95-1.52s.35.61.45,1.6a2.29,2.29,0,0,1-.43,1.56,1.67,1.67,0,0,1-1.67.67,1.73,1.73,0,0,1-1.14-.7,26,26,0,0,0,2.07-2,4.84,4.84,0,0,1-.93-1.6,6.49,6.49,0,0,1-.45-2.82,3.87,3.87,0,0,1,1.21-2.54,3.62,3.62,0,0,1,2.67-.82,5.19,5.19,0,0,1,2.58,1c5.49-2.34,8.26-7.3,9.58-10.77a11.2,11.2,0,0,0,1,3.67,7.06,7.06,0,0,0,1.48,2.17,3.62,3.62,0,0,0,1.94,1l.48,0a28.58,28.58,0,0,0,5.64,6.26c-.17-1.3-2.39-5.36-2.57-6.65,1.12,2.58,2.66,5.88,4.75,8.11a2.83,2.83,0,0,0-1.47-.1c-.48.11-.72.31-.69.4s1.13,0,2.22.52,1.59,1.51,1.78,1.43.09-.35-.12-.79h0a4,4,0,0,0,.38.24,4.11,4.11,0,0,0,.56.27l.06.26a109.73,109.73,0,0,1-7.15,14.54c-5.14,8-11.72,6.14-11.72,6.14l-1.39,3a5,5,0,0,0,1.56.52c2.57.41,5.14-1.25,7.7-.83,4.44.74,6,7,10.35,8.24,2.39.71,5-.35,7-1.8a8.64,8.64,0,0,0,2.28-2.31,6.27,6.27,0,0,0,1.75-.91,5.77,5.77,0,0,0,2.27-3.36,3.19,3.19,0,0,0-.32-2.47,1.33,1.33,0,0,0-1.21-.65c-.84.08-1.65.66-2.54.61a1.72,1.72,0,0,1-1.14-.33l-.1-.15v-.22h0V214a2.23,2.23,0,0,1,.09-.32c.05-.14.09-.26.14-.38a.69.69,0,0,1,.1-.17h0l.27-.09h0l.15-.06a2.1,2.1,0,0,0,.29-.26,2.64,2.64,0,0,1,.37-.31c.34-.31.68-.61,1-.93a25.48,25.48,0,0,0,2.1-2.1,12.27,12.27,0,0,0,2.43-4.28,11,11,0,0,0,.28-5.42,14.8,14.8,0,0,0-1.29-3.75c-.18-.36-.36-.69-.54-1a10.2,10.2,0,0,0-1-4.85,23,23,0,0,0-3-4.23,18.78,18.78,0,0,1-1.22-1.7c-.23-.77-.43-1.46-.62-2.09a11.68,11.68,0,0,0-.57-3.3c0-.07,0-.13,0-.13l0,0a8.05,8.05,0,0,0-1.22-2.39c-1.36-2.49-3.88-4.22-6.43-5.55a17.43,17.43,0,0,0-7.55-2.33,9.2,9.2,0,0,0-4,.81C284,164.4,279,172.05,276.3,178a36.83,36.83,0,0,0-3.21,4.93,24.89,24.89,0,0,0-3,11v.51c-1.25,2.55-2.37,4.33-2.64,5.18a5.5,5.5,0,0,0,.44,4.77,4.76,4.76,0,0,0,1.94,1.6l3.74-8.56A2.36,2.36,0,0,0,275.05,198.34Zm20.24-14.61a4.91,4.91,0,0,1-2.88-3,14,14,0,0,1-1.22-4.59c.05-.15.09-.29.13-.43a34.71,34.71,0,0,0,4,8Zm18.26,30.88v0h0v-.06Zm.07-1.39h0l.06,0Zm1-27.08a24.06,24.06,0,0,1,2.88,4.16,9.82,9.82,0,0,1,1,3.76c-.53-.89-1-1.54-1.29-2.09a36.32,36.32,0,0,1-2.66-5.71c-.08-.19-.14-.37-.2-.56Zm-41.11-2.95c.59-1.1,1.22-2.13,1.86-3.09-.46,1.15-.82,2.15-1.1,2.84-.36.86-.74,2-1.13,3.33h0c-.14.48-.29,1-.43,1.48a41.84,41.84,0,0,1-2.3,5.9A26.07,26.07,0,0,1,273.55,183.19Z" transform="translate(-72 -65.58)"/><path class="cls-8" d="M373.81,184.58A19.72,19.72,0,0,1,338,192.2l-9.35,1.45,6.33-8.8a19.73,19.73,0,1,1,38.83-.27Z" transform="translate(-72 -65.58)"/><path class="cls-2" d="M355,175.17l-.12,12.11-2.25,0,.05-5.18-6.26-.06-.05,5.18-2.25,0,.12-12.1,2.25,0-.05,5,6.26.06.05-5Z" transform="translate(-72 -65.58)"/><path class="cls-2" d="M357.7,175.25a1.31,1.31,0,0,1,1.39-1.28,1.28,1.28,0,0,1,1.37,1.26,1.38,1.38,0,0,1-2.76,0Zm.26,2.83,2.16,0-.09,9.23-2.16,0Z" transform="translate(-72 -65.58)"/><path class="cls-2" d="M362.48,186.12a1.34,1.34,0,0,1,1.42-1.31,1.31,1.31,0,0,1,1.35,1.34,1.34,1.34,0,0,1-1.38,1.34A1.36,1.36,0,0,1,362.48,186.12Zm.23-10.87,2.56,0-.51,8.08h-1.71Z" transform="translate(-72 -65.58)"/></g></svg>